<?xml version="1.0" standalone="no"?>
<!DOCTYPE svg PUBLIC "-//W3C//DTD SVG 20010904//EN"
 "http://www.w3.org/TR/2001/REC-SVG-20010904/DTD/svg10.dtd">
<svg version="1.0" xmlns="http://www.w3.org/2000/svg"
 width="119.000000pt" height="119.000000pt" viewBox="0 0 119.000000 119.000000"
 preserveAspectRatio="xMidYMid meet">
<metadata>
Created by potrace 1.11, written by Peter Selinger 2001-2013
</metadata>
<g transform="translate(0.000000,119.000000) scale(0.100000,-0.100000)"
fill="#000000" stroke="none">
<path d="M349 1093 c-1 -5 -3 -78 -4 -163 -1 -85 -3 -160 -4 -166 -1 -6 -58
-10 -167 -9 -91 0 -168 -3 -170 -7 -8 -12 19 -22 71 -25 169 -9 222 -24 253
-71 14 -21 17 -54 17 -191 l0 -166 80 -1 c44 -1 87 -2 97 -3 17 -1 63 -71 73
-113 4 -16 2 -29 -6 -34 -7 -4 -58 -9 -113 -10 -56 -2 -104 -3 -108 -3 -4 -1
-5 -8 -2 -16 5 -13 61 -15 416 -15 367 0 409 2 406 16 -2 13 -22 16 -105 19
-142 4 -162 16 -235 136 -31 52 -57 100 -57 107 -1 6 -5 12 -11 12 -5 0 -10 4
-10 9 0 5 -34 68 -76 140 -83 143 -87 166 -31 176 43 8 158 13 177 8 13 -4 15
-34 14 -213 0 -142 3 -210 10 -213 6 -2 65 -3 131 -3 l120 1 1 403 0 403 -130
-3 -131 -3 -1 -160 c-1 -88 -2 -165 -3 -170 -1 -6 -47 -10 -121 -11 l-120 0
-1 36 c0 19 0 97 0 173 l-1 137 -129 0 c-71 0 -130 -3 -130 -7z"/>
</g>
</svg>
